<svg width="38" height="36" viewBox="0 0 38 36" fill="none" xmlns="http://www.w3.org/2000/svg">
<path d="M35.8347 11.3473L22.6697 1.18542C20.637 -0.392068 17.3505 -0.392068 15.3368 1.16707L2.17174 11.3473C0.689966 12.4846 -0.259891 14.8874 0.0630605 16.685L2.58968 31.2859C3.04561 33.8906 5.62922 36 8.3648 36H29.6416C32.3582 36 34.9608 33.8722 35.4167 31.2859L37.9433 16.685C38.2473 14.8874 37.2974 12.4846 35.8347 11.3473ZM19.0032 24.4257C16.3816 24.4257 14.2539 22.3713 14.2539 19.84C14.2539 17.3087 16.3816 15.2543 19.0032 15.2543C21.6248 15.2543 23.7525 17.3087 23.7525 19.84C23.7525 22.3713 21.6248 24.4257 19.0032 24.4257Z" fill="#E8E8E7"/>
</svg>
