<svg width="32" height="32" viewBox="0 0 32 32" fill="none" xmlns="http://www.w3.org/2000/svg">
<path d="M19.9976 27.9966V17.3312C19.9976 16.9776 19.8571 16.6385 19.6071 16.3885C19.3571 16.1385 19.018 15.998 18.6644 15.998H13.3317C12.9781 15.998 12.639 16.1385 12.389 16.3885C12.139 16.6385 11.9985 16.9776 11.9985 17.3312V27.9966" stroke="#27C840" stroke-width="2.66634" stroke-linecap="round" stroke-linejoin="round"/>
<path d="M3.99951 13.3317C3.99942 12.9438 4.08395 12.5606 4.2472 12.2088C4.41045 11.857 4.6485 11.545 4.94473 11.2946L14.2769 3.29559C14.7582 2.88885 15.3679 2.6657 15.998 2.6657C16.6282 2.6657 17.2379 2.88885 17.7192 3.29559L27.0514 11.2946C27.3476 11.545 27.5856 11.857 27.7489 12.2088C27.9121 12.5606 27.9967 12.9438 27.9966 13.3317V25.3302C27.9966 26.0374 27.7157 26.7156 27.2156 27.2156C26.7156 27.7157 26.0374 27.9966 25.3302 27.9966H6.66585C5.95869 27.9966 5.2805 27.7157 4.78046 27.2156C4.28043 26.7156 3.99951 26.0374 3.99951 25.3302V13.3317Z" stroke="#27C840" stroke-width="2.66634" stroke-linecap="round" stroke-linejoin="round"/>
</svg>
