<svg width="40" height="40" viewBox="0 0 40 40" fill="none" xmlns="http://www.w3.org/2000/svg">
<g clip-path="url(#clip0_28_4199)">
<path d="M22.5 1.1167C22.5 1.1167 23.7334 5.53337 23.7334 9.1167C23.7334 12.55 21.4834 15.3417 18.0417 15.3417C14.6 15.3417 12 12.5584 12 9.1167L12.0417 8.5167C8.69169 12.525 6.66669 17.6917 6.66669 23.3334C6.66669 30.7 12.6334 36.6667 20 36.6667C27.3667 36.6667 33.3334 30.7 33.3334 23.3334C33.3334 14.3417 29.0084 6.32503 22.5 1.1167ZM19.5167 31.6667C16.55 31.6667 14.1417 29.325 14.1417 26.4334C14.1417 23.725 15.8834 21.825 18.8334 21.2334C21.7834 20.6417 24.8334 19.225 26.525 16.9417C27.175 19.0917 27.5167 21.3584 27.5167 23.6667C27.5167 28.075 23.9334 31.6667 19.5167 31.6667Z" fill="#E7E7E7"/>
</g>
<defs>
<clipPath id="clip0_28_4199">
<rect width="40" height="40" fill="white"/>
</clipPath>
</defs>
</svg>
